<svg xmlns="http://www.w3.org/2000/svg" xmlns:xlink="http://www.w3.org/1999/xlink" width="500" zoomAndPan="magnify" viewBox="0 0 375 374.999991" height="500" preserveAspectRatio="xMidYMid meet" version="1.0"><defs><clipPath id="ab4677874e"><path d="M 254 119 L 341.667969 119 L 341.667969 220 L 254 220 Z M 254 119 " clip-rule="nonzero"/></clipPath><clipPath id="0db9014e29"><path d="M 211 94 L 341.667969 94 L 341.667969 170 L 211 170 Z M 211 94 " clip-rule="nonzero"/></clipPath><clipPath id="d67cdaacf0"><path d="M 76 222 L 164 222 L 164 321.996094 L 76 321.996094 Z M 76 222 " clip-rule="nonzero"/></clipPath><clipPath id="5be4d41961"><path d="M 33.417969 248 L 77 248 L 77 321.996094 L 33.417969 321.996094 Z M 33.417969 248 " clip-rule="nonzero"/></clipPath><clipPath id="3a83c7449a"><path d="M 33.417969 197 L 164 197 L 164 273 L 33.417969 273 Z M 33.417969 197 " clip-rule="nonzero"/></clipPath><clipPath id="c44500f1bb"><path d="M 105 52.746094 L 236 52.746094 L 236 129 L 105 129 Z M 105 52.746094 " clip-rule="nonzero"/></clipPath></defs><g clip-path="url(#ab4677874e)"><path fill="#b13914" d="M 254.683594 169.570312 L 254.683594 219.074219 L 341.394531 167.894531 L 341.394531 119.507812 Z M 254.683594 169.570312 " fill-opacity="1" fill-rule="nonzero"/></g><path fill="#99230d" d="M 211.8125 144.816406 L 211.8125 194.320312 L 254.683594 219.074219 L 254.683594 169.570312 Z M 211.8125 144.816406 " fill-opacity="1" fill-rule="nonzero"/><g clip-path="url(#0db9014e29)"><path fill="#d24317" d="M 211.8125 144.816406 L 297.554688 94.195312 L 341.394531 119.507812 L 254.683594 169.570312 Z M 211.8125 144.816406 " fill-opacity="1" fill-rule="nonzero"/></g><path fill="#b13914" d="M 165.636719 220.78125 L 165.636719 270.285156 L 252.347656 219.105469 L 252.347656 170.71875 Z M 165.636719 220.78125 " fill-opacity="1" fill-rule="nonzero"/><path fill="#99230d" d="M 122.765625 196.03125 L 122.765625 245.535156 L 165.636719 270.285156 L 165.636719 220.78125 Z M 122.765625 196.03125 " fill-opacity="1" fill-rule="nonzero"/><path fill="#d24317" d="M 122.765625 196.03125 L 208.507812 145.410156 L 252.347656 170.71875 L 165.636719 220.78125 Z M 122.765625 196.03125 " fill-opacity="1" fill-rule="nonzero"/><g clip-path="url(#d67cdaacf0)"><path fill="#b13914" d="M 76.585938 272.761719 L 76.585938 322.265625 L 163.296875 271.085938 L 163.296875 222.699219 Z M 76.585938 272.761719 " fill-opacity="1" fill-rule="nonzero"/></g><g clip-path="url(#5be4d41961)"><path fill="#99230d" d="M 33.714844 248.011719 L 33.714844 297.515625 L 76.585938 322.265625 L 76.585938 272.761719 Z M 33.714844 248.011719 " fill-opacity="1" fill-rule="nonzero"/></g><g clip-path="url(#3a83c7449a)"><path fill="#d24317" d="M 33.714844 248.011719 L 119.457031 197.390625 L 163.296875 222.699219 L 76.585938 272.761719 Z M 33.714844 248.011719 " fill-opacity="1" fill-rule="nonzero"/></g><path fill="#b13914" d="M 204.71875 146.527344 L 204.71875 196.03125 L 291.429688 144.851562 L 291.429688 96.464844 Z M 204.71875 146.527344 " fill-opacity="1" fill-rule="nonzero"/><path fill="#99230d" d="M 161.847656 121.773438 L 161.847656 171.277344 L 204.71875 196.03125 L 204.71875 146.527344 Z M 161.847656 121.773438 " fill-opacity="1" fill-rule="nonzero"/><path fill="#d24317" d="M 161.847656 121.773438 L 247.589844 71.152344 L 291.429688 96.464844 L 204.71875 146.527344 Z M 161.847656 121.773438 " fill-opacity="1" fill-rule="nonzero"/><path fill="#b13914" d="M 115.382812 199.867188 L 115.382812 249.371094 L 202.09375 198.191406 L 202.09375 149.804688 Z M 115.382812 199.867188 " fill-opacity="1" fill-rule="nonzero"/><path fill="#99230d" d="M 72.511719 175.117188 L 72.511719 224.621094 L 115.382812 249.371094 L 115.382812 199.867188 Z M 72.511719 175.117188 " fill-opacity="1" fill-rule="nonzero"/><path fill="#d24317" d="M 72.511719 175.117188 L 158.253906 124.496094 L 202.09375 149.804688 L 115.382812 199.867188 Z M 72.511719 175.117188 " fill-opacity="1" fill-rule="nonzero"/><path fill="#b13914" d="M 148.804688 128.097656 L 148.804688 177.601562 L 235.519531 126.421875 L 235.519531 78.035156 Z M 148.804688 128.097656 " fill-opacity="1" fill-rule="nonzero"/><path fill="#99230d" d="M 105.933594 103.34375 L 105.933594 152.847656 L 148.804688 177.601562 L 148.804688 128.097656 Z M 105.933594 103.34375 " fill-opacity="1" fill-rule="nonzero"/><g clip-path="url(#c44500f1bb)"><path fill="#d24317" d="M 105.933594 103.34375 L 191.679688 52.722656 L 235.519531 78.035156 L 148.804688 128.097656 Z M 105.933594 103.34375 " fill-opacity="1" fill-rule="nonzero"/></g></svg>